PathFileType	4	(X/Y/Z)	/Users/itak/Documents/Research/Walk-IL/dataset/trc/00397_00012.trc
DataRate	CameraRate	NumFrames	NumMarkers	Units	OrigDataRate	OrigDataStartFrame	OrigNumFrames
100.000000	100.000000	4	53	mm	100.000000	180	722
Frame#	Time	RPSI			LPSI			L3			STRN			T10			C7			CLAV			RBAK			LBAK			LSHO			LUPA			LAEL			LAOL			LWTS			LWPS			LFRA			LIFD			LHPS			LHTS			RSHO			RUPA			RAEL			RAOL			RWTS			RWPS			RFRA			RIFD			RHTS			RHPS			RBHD			LFHD			RFHD			LBHD			LHIP			RHIP			RASI			LASI			LKNE			LTHI			LANK			LTIP			LTOE			LMT1			LMT5			LHEE			RKNE			RTHI			RANK			RTIP			RTOE			RMT1			RMT5			RHEE			
		X1	Y1	Z1	X2	Y2	Z2	X3	Y3	Z3	X4	Y4	Z4	X5	Y5	Z5	X6	Y6	Z6	X7	Y7	Z7	X8	Y8	Z8	X9	Y9	Z9	X10	Y10	Z10	X11	Y11	Z11	X12	Y12	Z12	X13	Y13	Z13	X14	Y14	Z14	X15	Y15	Z15	X16	Y16	Z16	X17	Y17	Z17	X18	Y18	Z18	X19	Y19	Z19	X20	Y20	Z20	X21	Y21	Z21	X22	Y22	Z22	X23	Y23	Z23	X24	Y24	Z24	X25	Y25	Z25	X26	Y26	Z26	X27	Y27	Z27	X28	Y28	Z28	X29	Y29	Z29	X30	Y30	Z30	X31	Y31	Z31	X32	Y32	Z32	X33	Y33	Z33	X34	Y34	Z34	X35	Y35	Z35	X36	Y36	Z36	X37	Y37	Z37	X38	Y38	Z38	X39	Y39	Z39	X40	Y40	Z40	X41	Y41	Z41	X42	Y42	Z42	X43	Y43	Z43	X44	Y44	Z44	X45	Y45	Z45	X46	Y46	Z46	X47	Y47	Z47	X48	Y48	Z48	X49	Y49	Z49	X50	Y50	Z50	X51	Y51	Z51	X52	Y52	Z52	X53	Y53	Z53	

181	1.8	704.8251953125	946.34423828125	1052.900634765625	612.8201904296875	940.2711791992188	958.8577880859375	656.48583984375	1025.003540039062	1007.837219238281	842.0381469726562	1177.724243164062	851.2948608398438	647.1614379882812	1130.543212890625	1013.532653808594	682.8432006835938	1378.48388671875	978.4078369140625	804.1353149414062	1297.649658203125	885.6111450195312	685.6160888671875	1232.389770507812	1057.773681640625	604.0719604492188	1345.28857421875	907.5896606445312	640.6693115234375	1361.410034179688	814.9297485351562	579.730224609375	1245.224609375	770.5982666015625	597.0332641601562	1052.40576171875	721.6142578125	589.0519409179688	1020.582153320312	802.030517578125	758.85888671875	913.7005615234375	649.032470703125	690.5283203125	876.7787475585938	620.924072265625	630.6807861328125	968.6500244140625	682.98046875	833.39208984375	767.6389770507812	577.2688598632812	741.9593505859375	813.6483154296875	587.9033813476562	797.4512939453125	845.9038696289062	588.206298828125	824.7103881835938	1353.006713867188	1065.558715820312	844.879150390625	1288.888427734375	1119.820922851562	860.533203125	1027.658081054688	1166.062133789062	806.074951171875	1020.671447753906	1087.856689453125	966.8941040039062	808.2042236328125	1111.664184570312	948.9497680664062	804.7324829101562	1182.846069335938	888.337158203125	967.2566528320312	1176.35595703125	966.095703125	636.33935546875	1132.947509765625	990.7018432617188	705.3646850585938	1133.496948242188	952.5510864257812	716.4110717773438	1190.73828125	806.1868286132812	1568.23388671875	1003.732299804688	757.4859008789062	1561.649047851562	810.3367919921875	857.8654174804688	1571.101684570312	880.1500854492188	664.4806518554688	1553.966064453125	925.5623779296875	599.2982788085938	927.3348388671875	816.9818115234375	846.1918334960938	931.6725463867188	1076.169555664062	900.7855224609375	944.8704833984375	945.51416015625	708.533935546875	926.9371337890625	764.4679565429688	667.7246704101562	435.0090026855469	868.7652587890625	649.7940673828125	577.038330078125	837.2356567382812	553.1897583007812	39.93811798095703	1048.144653320312	607.4592895507812	218.8258666992188	951.45166015625	774.8448486328125	35.02874755859375	1009.617248535156	714.0780639648438	39.6757926940918	1071.186889648438	660.8949584960938	37.49501037597656	980.6620483398438	541.7470703125	43.38923645019531	1114.371826171875	1008.244262695312	484.7130737304688	945.3448486328125	951.4229736328125	734.7298583984375	992.010498046875	1108.580444335938	64.48773956298828	874.3179931640625	1047.705078125	371.7655944824219	908.884521484375	1163.720092773438	112.2547988891602	705.32763671875	1096.72802734375	89.31604766845703	739.9956665039062	1166.463623046875	75.03193664550781	810.0711059570312	1026.941284179688	25.45475006103516	890.6240844726562	
182	1.81	714.3847045898438	944.85400390625	1047.885620117188	621.34228515625	938.5906372070312	954.8369140625	665.3223876953125	1023.183837890625	1003.320495605469	848.5863647460938	1176.259155273438	844.5789794921875	655.8435668945312	1128.778686523438	1009.020751953125	690.7572631835938	1376.74462890625	973.7879028320312	810.9367065429688	1296.079711914062	879.4148559570312	694.6524658203125	1230.64501953125	1053.09765625	611.0853271484375	1343.3984375	903.8953857421875	646.427490234375	1359.5693359375	810.73193359375	584.9573974609375	1243.159790039062	767.4579467773438	601.6213989257812	1050.105102539062	718.5866088867188	595.1978149414062	1018.543640136719	799.3505249023438	762.3067626953125	910.3413696289062	644.5927124023438	693.5613403320312	873.7200927734375	617.438232421875	634.6751098632812	965.9597778320312	679.7100830078125	835.1253662109375	763.437744140625	572.8136596679688	744.1472778320312	810.1052856445312	584.1439208984375	799.9095458984375	842.001708984375	583.71923828125	833.6618041992188	1351.4404296875	1059.142700195312	854.6373901367188	1287.251953125	1113.130615234375	871.6649169921875	1026.022583007812	1158.9189453125	817.6248168945312	1018.182434082031	1080.40625	977.5099487304688	806.7540283203125	1103.005493164062	960.5773315429688	803.291259765625	1174.457763671875	899.7171020507812	965.6910400390625	1168.783447265625	977.1834716796875	634.9064331054688	1124.401489257812	1001.703125	703.9318237304688	1124.552124023438	964.3699340820312	714.97607421875	1182.333862304688	813.8980102539062	1566.578002929688	997.986328125	763.1209106445312	1560.492797851562	805.2425537109375	864.265625	1569.859741210938	873.977294921875	671.34765625	1552.24560546875	921.4981079101562	606.0277099609375	925.5372924804688	813.2255249023438	855.5263061523438	930.4617919921875	1069.387451171875	908.97314453125	943.66796875	938.0245361328125	714.5431518554688	925.130126953125	759.2144165039062	672.6519775390625	433.6360473632812	865.8956909179688	655.2904052734375	575.6024780273438	834.1121215820312	553.5203857421875	40.78642654418945	1048.591918945312	609.7760009765625	218.8386383056641	950.2276611328125	774.9892578125	34.896728515625	1009.40087890625	714.4472045898438	40.0126838684082	1071.06884765625	660.9771728515625	37.53973007202148	980.6919555664062	542.273193359375	45.16845321655273	1114.921630859375	1016.563171386719	483.2655944824219	936.5965576171875	960.6591796875	733.8423461914062	983.9254760742188	1117.588745117188	64.29717254638672	859.491943359375	1055.58349609375	370.900390625	898.2763671875	1167.917114257812	114.3496932983398	689.4373168945312	1101.945678710938	90.57867431640625	725.732666015625	1173.7099609375	75.84459686279297	793.7088623046875	1036.568481445312	24.52994728088379	877.5425415039062	
183	1.82	724.059326171875	943.4784545898438	1042.75439453125	630.031982421875	937.0053100585938	950.6735229492188	674.2618408203125	1021.4306640625	998.697998046875	855.2153930664062	1174.904663085938	837.8242797851562	664.62353515625	1127.07373046875	1004.33740234375	698.6781005859375	1375.0673828125	969.0792236328125	817.7916259765625	1294.609985351562	873.1788330078125	703.6864624023438	1228.951416015625	1048.264282226562	618.1593017578125	1341.572875976562	900.0787963867188	652.2894897460938	1357.828369140625	806.4619140625	590.3043212890625	1241.199829101562	764.2060546875	606.2378540039062	1047.884033203125	715.4987182617188	601.4284057617188	1016.63623046875	796.6078491210938	765.5499267578125	906.7109985351562	640.17431640625	696.3297729492188	870.46044921875	614.05322265625	638.5875854492188	963.2431640625	676.43359375	836.3538208007812	758.7291259765625	568.61083984375	745.9426879882812	806.234130859375	580.5800170898438	802.0213012695312	837.6705322265625	579.360595703125	842.5713500976562	1349.950439453125	1052.685302734375	864.3485717773438	1285.677001953125	1106.381713867188	882.826171875	1024.451416015625	1151.6083984375	829.306640625	1015.660461425781	1072.741577148438	988.1576538085938	805.3924560546875	1094.121215820312	972.2388305664062	801.9307861328125	1165.837036132812	911.1466674804688	964.1915893554688	1161.020874023438	988.3624877929688	633.5643920898438	1115.638549804688	1012.766174316406	702.594970703125	1115.374389648438	976.25048828125	713.6155395507812	1173.695678710938	821.5789794921875	1565.062133789062	992.2197875976562	768.730712890625	1559.408447265625	800.1047973632812	870.6195678710938	1568.727661132812	867.7318725585938	678.1913452148438	1550.581665039062	917.362060546875	612.9615478515625	923.7861328125	809.352783203125	865.18408203125	929.389404296875	1062.455444335938	917.2706909179688	942.5803833007812	930.5081787109375	720.7823486328125	923.3688354492188	753.8892822265625	677.8855590820312	432.333984375	862.9511108398438	661.0671997070312	574.20751953125	830.9171752929688	553.9588012695312	41.904052734375	1049.1064453125	612.2283935546875	219.0463562011719	948.98974609375	775.15283203125	34.75409698486328	1009.163513183594	714.9012451171875	40.44654083251953	1070.932250976562	661.114990234375	37.63954162597656	980.73828125	542.94482421875	47.34912872314453	1115.527954101562	1024.656616210938	481.9925231933594	927.2196655273438	969.9591064453125	732.9132690429688	975.6298217773438	1124.662719726562	63.61384201049805	846.6284790039062	1062.910400390625	369.7886657714844	887.5952758789062	1170.742431640625	114.6222610473633	675.5149536132812	1105.683349609375	90.42654418945312	713.3385620117188	1179.180053710938	75.58054351806641	779.4840698242188	1044.154541015625	23.51862716674805	866.4560546875	
184	1.83	733.8867797851562	942.2386474609375	1037.491333007812	638.9036865234375	935.5573120117188	946.3818359375	683.319091796875	1019.760314941406	993.9592895507812	861.9323120117188	1173.679443359375	831.035400390625	673.4940185546875	1125.4384765625	999.5119018554688	706.60400390625	1373.475341796875	964.2814331054688	824.705078125	1293.261840820312	866.9030151367188	712.726806640625	1227.328125	1043.281127929688	625.2958374023438	1339.826293945312	896.1452026367188	658.2613525390625	1356.201171875	802.1216430664062	595.7911376953125	1239.359619140625	760.8341064453125	610.8978271484375	1045.766357421875	712.3443603515625	607.7266235351562	1014.883605957031	793.7830200195312	768.5999755859375	902.8402709960938	635.7882080078125	698.8331298828125	867.03076171875	610.77734375	642.4286499023438	960.5350341796875	673.1568603515625	837.08251953125	753.5590209960938	564.6679077148438	747.3619995117188	802.074951171875	577.2255249023438	803.7728881835938	832.9469604492188	575.1385498046875	851.445556640625	1348.562744140625	1046.189208984375	874.0147094726562	1284.192749023438	1099.577392578125	893.9939575195312	1022.971740722656	1144.134765625	840.8941040039062	1013.247253417969	1064.987426757812	998.8289184570312	804.1538696289062	1085.008666992188	983.9248046875	800.67919921875	1156.980224609375	922.6019287109375	962.7835693359375	1153.073120117188	999.6207885742188	632.3378295898438	1106.644287109375	1023.893859863281	701.3916625976562	1105.951782226562	988.1923217773438	712.3668823242188	1164.811645507812	829.2318115234375	1563.68994140625	986.4635620117188	774.3137817382812	1558.421630859375	794.92822265625	876.9270629882812	1567.72607421875	861.41943359375	685.015869140625	1548.99853515625	913.1529541015625	620.104248046875	922.1288452148438	805.3713989257812	875.2595825195312	928.44775390625	1055.341674804688	925.6987915039062	941.605712890625	922.9441528320312	727.2457885742188	921.68310546875	748.4888305664062	683.4290771484375	431.1254577636719	859.8800659179688	667.1091918945312	572.8817138671875	827.6251831054688	554.5115356445312	43.33943557739258	1049.646728515625	614.80859375	219.4921722412109	947.694580078125	775.3395385742188	34.60343933105469	1008.903869628906	715.4348754882812	41.01044464111328	1070.74267578125	661.308349609375	37.79627227783203	980.7772216796875	543.7832641601562	49.99021530151367	1116.151489257812	1032.498779296875	480.8641662597656	917.2664794921875	979.2661743164062	731.9208374023438	967.133056640625	1129.981689453125	62.42500686645508	835.70166015625	1069.707397460938	368.4215087890625	876.859130859375	1172.401245117188	113.0082168579102	663.479736328125	1108.133056640625	88.83078765869141	702.7520141601562	1183.05859375	74.19773864746094	767.3624267578125	1049.878784179688	22.46035957336426	857.3663330078125	
